<svg width="50" height="50" viewBox="0 0 50 50" fill="none" xmlns="http://www.w3.org/2000/svg">
  <rect width="50" height="50" rx="8" fill="#2DAFEF" />
  <path
    d="M25.8358 21.1111L26.3582 24.0028C26.4627 24.3519 26.4627 24.3519 26.9851 24.3519C30.0672 24.3519 32 26.6453 32 29.188C32 31.4316 30.6418 33.1268 28.5 33.9245C28.2388 34.0242 28.1866 34.0242 28.2388 34.2735C28.4478 35.5199 28.8657 37.4145 28.8657 38.5114C28.8657 41.9017 26.1493 42.5 24.7388 42.5C21.5522 42.5 20.7687 40.5556 20.7687 39.2593C20.7687 38.0128 21.6045 36.9658 23.0149 36.9658C24.2687 36.9658 25 37.9131 25 39.01C25 40.1567 24.2687 40.7051 23.5896 40.9046C23.1194 41.0043 22.9104 41.104 22.9104 41.2037C22.9104 41.5028 23.4851 41.802 24.5821 41.802C25.8358 41.802 27.9254 41.453 27.9254 38.5114C27.9254 37.5641 27.6119 35.8191 27.3507 34.4729C27.2985 34.2236 27.2985 34.2735 27.0373 34.3234L25.6269 34.4231C20.5075 34.4231 18 31.1325 18 27.6425C18 23.6538 21.1866 20.7621 24.2164 18.4188C24.4776 18.2194 24.4254 18.1695 24.3731 17.9202C24.2687 17.1225 24.1119 15.8262 24.1119 14.6795C24.1119 12.5855 24.5821 10.0926 26.1493 8.44729C26.5672 7.99858 27.194 7.5 27.5075 7.5C27.7164 7.5 28.291 8.04843 28.6045 8.49715C29.4403 9.69373 29.9627 11.3889 29.9627 13.1339C29.9627 16.1752 28.2388 18.7179 25.9925 20.7621C25.8358 20.8618 25.8358 20.8618 25.8358 21.1111ZM27.8209 10.5912C26.5672 10.5912 25.0522 12.4858 25.0522 15.6268L25.1567 17.4715C25.209 17.7208 25.3134 17.7208 25.4179 17.6211C27.0896 16.2251 29.0746 14.4302 29.0746 12.2365C29.0746 11.1396 28.5 10.5912 27.8209 10.5912ZM25.5224 24.1524L25.1045 21.6097C25.0522 21.4103 25 21.3604 24.791 21.5598C23.8507 22.3077 22.8582 23.0556 21.6045 24.3519C19.8806 26.2464 19.6716 27.8419 19.6716 28.9886C19.6716 31.7806 22.0224 33.7251 25.6791 33.7251L26.8806 33.6254C27.194 33.5256 27.194 33.5256 27.1418 33.3262L26.097 27.3932C26.0448 27.1439 26.0448 27.1439 25.6791 27.2436C24.4254 27.5427 23.5896 28.4402 23.5896 29.537C23.5896 30.4843 24.2164 31.3319 25.1045 31.6809C25.2612 31.7308 25.4179 31.8305 25.4179 31.9302C25.4179 32.0798 25.3134 32.1795 25.1567 32.1795L24.5821 32.0299C23.1716 31.5812 22.1791 30.3348 22.1791 28.5399C22.1791 26.8447 23.3806 25.2493 25.209 24.651C25.6269 24.5513 25.6269 24.5513 25.5224 24.1524ZM26.9851 27.3433L28.0299 33.0271C28.0299 33.2764 28.0821 33.2764 28.3433 33.1268C29.4925 32.5784 30.3284 31.5812 30.3284 30.3348C30.3284 28.5399 28.9179 27.1937 27.194 27.0442C26.9851 27.0442 26.9328 27.094 26.9851 27.3433Z"
    fill="white" />
</svg>